<svg title="Slack" width="40" height="40" viewBox="0 0 40 40" fill="hsl(240, 11%, 96%)" xmlns="http://www.w3.org/2000/svg">
              <path class="green" d="M8.37661 25.324C8.37661 27.6292 6.4935 29.5124 4.18831 29.5124C1.88311 29.5124 0 27.6292 0 25.324C0 23.0188 1.88311 21.1357 4.18831 21.1357H8.37661V25.324Z"></path>
              <path class="green" d="M10.4873 25.324C10.4873 23.0188 12.3704 21.1357 14.6756 21.1357C16.9808 21.1357 18.8639 23.0188 18.8639 25.324V35.811C18.8639 38.1162 16.9808 39.9994 14.6756 39.9994C12.3704 39.9994 10.4873 38.1162 10.4873 35.811V25.324Z"></path>
              <path class="yellow" d="M14.6756 8.37662C12.3704 8.37662 10.4873 6.4935 10.4873 4.18831C10.4873 1.88312 12.3704 0 14.6756 0C16.9808 0 18.8639 1.88312 18.8639 4.18831V8.37662H14.6756Z"></path>
              <path class="yellow" d="M14.6753 10.4863C16.9805 10.4863 18.8636 12.3694 18.8636 14.6746C18.8636 16.9798 16.9805 18.8629 14.6753 18.8629H4.18831C1.88312 18.8629 0 16.9798 0 14.6746C0 12.3694 1.88312 10.4863 4.18831 10.4863H14.6753Z"></path>
              <path class="red" d="M31.624 14.6746C31.624 12.3694 33.5071 10.4863 35.8123 10.4863C38.1175 10.4863 40.0006 12.3694 40.0006 14.6746C40.0006 16.9798 38.1175 18.8629 35.8123 18.8629H31.624V14.6746Z"></path>
              <path class="red" d="M29.5133 14.6753C29.5133 16.9805 27.6302 18.8636 25.325 18.8636C23.0198 18.8636 21.1367 16.9805 21.1367 14.6753V4.18831C21.1367 1.88312 23.0198 0 25.325 0C27.6302 0 29.5133 1.88312 29.5133 4.18831V14.6753Z"></path>
              <path class="blue" d="M25.325 31.623C27.6302 31.623 29.5133 33.5062 29.5133 35.8113C29.5133 38.1165 27.6302 39.9996 25.325 39.9996C23.0198 39.9996 21.1367 38.1165 21.1367 35.8113V31.623H25.325Z"></path>
              <path class="blue" d="M25.325 29.5123C23.0198 29.5123 21.1367 27.6292 21.1367 25.324C21.1367 23.0188 23.0198 21.1357 25.325 21.1357H35.812C38.1172 21.1357 40.0003 23.0188 40.0003 25.324C40.0003 27.6292 38.1172 29.5123 35.812 29.5123H25.325Z"></path>
            </svg>