<svg width="92.62" height="24" viewBox="0 0 93 24" fill="none" xmlns="http://www.w3.org/2000/svg">
  <path class="symbol" fill-rule="evenodd" clip-rule="evenodd" d="M6 15.496V18L0 12L1.2528 10.7472L6 15.496ZM8.504 18H6L12 24L13.2528 22.7472L8.504 18ZM22.744 13.2528L23.9968 12L11.9968 0L10.7472 1.256L15.4944 6.0032H12.6256L9.312 2.696L8.0592 3.9488L10.12 6.0096H8.68V15.3232H17.9936V13.8832L20.0544 15.944L21.3072 14.6912L17.9936 11.3776V8.5088L22.744 13.2528ZM6.6256 5.3792L5.3696 6.632L6.7136 7.976L7.9664 6.7232L6.6256 5.3792ZM17.2816 16.0352L16.0288 17.288L17.3728 18.632L18.6256 17.3792L17.2816 16.0352ZM3.9376 8.0656L2.6848 9.3184L5.9984 12.632V10.1264L3.9376 8.0656ZM13.8768 18.0048H11.3728L14.6864 21.3184L15.9392 20.0656L13.8768 18.0048Z" fill="#ff6161"></path>
  <path d="M90.9873 17.9855C90.1793 17.9855 89.5473 17.7663 89.0961 17.3263C88.6449 16.8863 88.4193 16.2751 88.4193 15.5007V10.7007H86.9697V8.90391H88.4273L88.6865 6.50391H90.3937V8.90391H92.6225V10.7039H90.3937V15.2399C90.389 15.4879 90.4815 15.7279 90.6513 15.9087C90.7381 16.001 90.8438 16.0735 90.9611 16.1213C91.0785 16.169 91.2048 16.1909 91.3313 16.1855H92.6225V17.9855H90.9873Z" fill="#fff"></path>
  <path d="M82.2684 18.1551C81.191 18.1551 80.3244 17.898 79.6684 17.3839C79.0166 16.8743 78.5698 16.1474 78.4092 15.3359H80.5516C80.6454 15.6478 80.8534 15.9129 81.134 16.0783C81.478 16.277 81.8714 16.3741 82.2684 16.3583C83.4108 16.3583 83.9852 16.0383 83.9852 15.4207C83.9852 15.1124 83.8054 14.8772 83.446 14.7151C83.0282 14.5359 82.5912 14.4054 82.1436 14.3263C81.6348 14.2287 81.1244 14.1023 80.606 13.9487C80.0902 13.7963 79.6323 13.4918 79.2924 13.0751C78.935 12.6484 78.7558 12.0873 78.7548 11.3919C78.7491 11.0265 78.8279 10.6647 78.985 10.3347C79.1421 10.0047 79.3732 9.71549 79.6604 9.48947C80.2662 8.98387 81.1062 8.7316 82.1804 8.73267C83.2545 8.73374 84.1078 8.97373 84.7404 9.45267C85.3694 9.92814 85.8017 10.6183 85.9548 11.3919H83.8092C83.5804 10.8239 83.0412 10.5343 82.1868 10.5327C81.27 10.5327 80.8124 10.8191 80.8124 11.3919C80.814 11.5232 80.8506 11.6517 80.9184 11.7642C80.9861 11.8767 81.0826 11.9691 81.198 12.0319C81.4918 12.2092 81.8183 12.3256 82.158 12.3743C82.5831 12.4466 83.0035 12.5438 83.4172 12.6655C83.8463 12.7882 84.2669 12.9389 84.6764 13.1167C85.0758 13.2972 85.4135 13.5909 85.6476 13.9615C85.9192 14.3967 86.0546 14.9032 86.0364 15.4159C86.045 15.7976 85.9623 16.1759 85.7954 16.5193C85.6284 16.8627 85.3819 17.1613 85.0764 17.3903C84.4385 17.8991 83.5025 18.154 82.2684 18.1551Z" fill="#fff"></path>
  <path d="M75.8796 9.64145C75.2194 9.04731 74.2946 8.75024 73.1052 8.75024C72.157 8.75024 71.3618 9.00571 70.7196 9.51665C70.0858 10.0149 69.6382 10.7121 69.4492 11.4958H71.4748C71.5778 11.199 71.7743 10.9436 72.0348 10.7678C72.351 10.5558 72.7265 10.4499 73.1068 10.4654C73.6636 10.4654 74.102 10.6094 74.4236 10.8942C74.5868 11.0461 74.7145 11.2321 74.7974 11.439C74.8804 11.6459 74.9167 11.8685 74.9036 12.091V12.5246H72.5836C71.517 12.5246 70.6791 12.794 70.07 13.3326C69.7788 13.5812 69.5463 13.8912 69.3892 14.2403C69.232 14.5894 69.1542 14.969 69.1612 15.3518C69.1505 15.7304 69.2206 16.1068 69.3668 16.4561C69.513 16.8054 69.732 17.1195 70.0092 17.3774C70.5724 17.9108 71.3191 18.1774 72.2492 18.1774C72.8254 18.1906 73.3956 18.058 73.9068 17.7918C74.3179 17.5908 74.6656 17.2802 74.9116 16.8942H74.9948L75.1628 18.0142H76.8764V12.0942C76.8732 11.0553 76.541 10.2377 75.8796 9.64145ZM74.9052 14.4926C74.9171 14.762 74.8695 15.0307 74.7658 15.2796C74.6621 15.5285 74.5049 15.7514 74.3052 15.9326C73.9074 16.2857 73.3644 16.4628 72.6764 16.4638C72.1756 16.4638 71.7916 16.3486 71.5276 16.1246C71.3993 16.0204 71.2966 15.8883 71.2273 15.7382C71.1579 15.5882 71.1238 15.4243 71.1276 15.259C71.1276 14.459 71.6508 14.0622 72.6764 14.0622H74.9052V14.4926Z" fill="#fff"></path>
  <path d="M64.0206 18.1742C62.7204 18.1742 61.6814 17.7572 60.9038 16.923C60.1262 16.0889 59.7369 14.9348 59.7358 13.4606C59.7358 11.9897 60.1236 10.8366 60.899 10.0014C61.6745 9.16625 62.715 8.74918 64.0206 8.75025C65.0809 8.75025 65.9598 9.03291 66.6574 9.59825C67.3418 10.1443 67.8294 10.8988 68.0462 11.747H66.0814C65.889 11.3712 65.5926 11.0586 65.2275 10.8464C64.8624 10.6342 64.4441 10.5314 64.0222 10.5502C63.7021 10.5388 63.3836 10.6014 63.0917 10.7332C62.7997 10.865 62.5421 11.0625 62.339 11.3102C61.9124 11.819 61.699 12.5358 61.699 13.4606C61.699 14.3854 61.9124 15.1022 62.339 15.611C62.5418 15.8594 62.7992 16.0575 63.0912 16.1899C63.3832 16.3222 63.7018 16.3854 64.0222 16.3742C64.4441 16.3923 64.8624 16.289 65.2273 16.0766C65.5923 15.8642 65.8887 15.5516 66.0814 15.1758H68.0462C67.8299 16.0248 67.3423 16.7799 66.6574 17.3262C65.9609 17.8916 65.082 18.1742 64.0206 18.1742Z" fill="#fff"></path>
  <path d="M52.4291 21.4369L53.8003 18.0065L50.1187 8.92493H52.2611L54.7459 15.3521H54.8291L57.3171 8.92493H59.4595L54.4867 21.4369H52.4291Z" fill="#fff"></path>
  <path d="M48.2675 9.64145C47.6072 9.04731 46.6824 8.75024 45.4931 8.75024C44.5443 8.75024 43.7475 9.00465 43.1075 9.51665C42.4732 10.0145 42.0256 10.7119 41.8371 11.4958H43.8627C43.9649 11.1986 44.1615 10.9429 44.4227 10.7678C44.7387 10.5554 45.1142 10.4495 45.4947 10.4654C46.0515 10.4654 46.4904 10.6084 46.8115 10.8942C46.975 11.0458 47.1029 11.2318 47.1859 11.4387C47.2689 11.6457 47.305 11.8685 47.2915 12.091V12.5246H44.9715C43.9048 12.5246 43.0669 12.794 42.4579 13.3326C42.1664 13.581 41.9337 13.8909 41.7765 14.2401C41.6194 14.5893 41.5417 14.969 41.5491 15.3518C41.5376 15.7302 41.6071 16.1065 41.7527 16.4559C41.8984 16.8052 42.117 17.1194 42.3939 17.3774C42.9571 17.9108 43.7037 18.1774 44.6339 18.1774C45.2101 18.1906 45.7802 18.058 46.2915 17.7918C46.7026 17.5908 47.0503 17.2802 47.2963 16.8942H47.3795L47.5475 18.0142H49.2579V12.0942C49.2579 11.0553 48.9277 10.2377 48.2675 9.64145ZM47.2899 14.4926C47.302 14.762 47.2545 15.0308 47.1508 15.2797C47.0471 15.5286 46.8897 15.7516 46.6899 15.9326C46.2931 16.2868 45.7501 16.4638 45.0611 16.4638C44.5603 16.4638 44.1747 16.3502 43.9123 16.1246C43.7842 16.0203 43.6815 15.8881 43.6122 15.7381C43.5429 15.5881 43.5087 15.4242 43.5123 15.259C43.5176 14.4622 44.0339 14.0633 45.0611 14.0622H47.2899V14.4926Z" fill="#fff"></path>
  <path d="M37.1522 13.461C37.4576 13.3794 37.7528 13.2634 38.0322 13.1154C38.3581 12.9368 38.663 12.7221 38.941 12.4754C39.277 12.166 39.5361 11.7825 39.6978 11.3554C39.8925 10.8537 39.9886 10.3191 39.981 9.781C39.981 8.6386 39.6162 7.7234 38.8866 7.0354C38.157 6.3474 37.2077 6.00447 36.0386 6.0066H31.0674V18.0066H33.2098V13.5538H34.8354L37.9234 18.0066H40.3234L37.1522 13.461ZM33.2098 11.6562V7.8962H35.8642C36.4722 7.8962 36.9522 8.061 37.3042 8.3906C37.6562 8.7202 37.8333 9.18207 37.8354 9.7762C37.8354 10.3703 37.6573 10.8333 37.301 11.165C36.9093 11.5061 36.4006 11.6822 35.8818 11.6562H33.2098Z" fill="#fff"></path>
</svg>