<svg title="Twitter" width="50" height="40" viewBox="0 0 50 40" xmlns="http://www.w3.org/2000/svg" fill="none">
              <path d="M15.4528 40C34.0158 40 44.1732 24.6063 44.1732 11.2796C44.1732 10.8465 44.1732 10.4134 44.1536 9.98031C46.122 8.56299 47.8347 6.77166 49.1929 4.74409C47.3819 5.55118 45.4331 6.08268 43.3858 6.33858C45.4724 5.09842 47.0669 3.11023 47.8347 0.74803C45.8858 1.90944 43.7204 2.73622 41.4173 3.18898C39.5669 1.22047 36.9488 0 34.0551 0C28.4842 0 23.9567 4.52756 23.9567 10.0984C23.9567 10.8858 24.0551 11.6536 24.2126 12.4016C15.8268 11.9882 8.38582 7.95276 3.40551 1.85039C2.53937 3.34646 2.04724 5.07874 2.04724 6.92913C2.04724 10.4331 3.83859 13.5237 6.53543 15.3347C4.88189 15.2756 3.32677 14.8228 1.9685 14.0748C1.9685 14.1142 1.9685 14.1536 1.9685 14.2126C1.9685 19.0944 5.45276 23.189 10.0591 24.1142C9.2126 24.3504 8.32677 24.4686 7.40158 24.4686C6.75197 24.4686 6.12204 24.4094 5.51181 24.2913C6.79133 28.3071 10.5315 31.2204 14.9409 31.2992C11.4763 34.0158 7.12599 35.6299 2.40158 35.6299C1.59449 35.6299 0.787401 35.5906 0 35.4921C4.44882 38.3268 9.76378 40 15.4528 40Z" fill="hsl(240, 11%, 96%)"></path>
            </svg>